<svg xmlns="http://www.w3.org/2000/svg" viewBox="0 0 95 65">
  <!-- Shadow -->
  <ellipse cx="48" cy="62" rx="28" ry="3" fill="rgba(0,0,0,0.18)"/>
  <!-- Banana body -->
  <path d="M15,44 Q19,12 47,8 Q74,5 82,22 Q86,33 80,39 Q72,46 46,48 Q21,50 15,44 Z" fill="#FFE020"/>
  <!-- Inner curve highlight -->
  <path d="M21,38 Q25,14 50,10 Q70,8 78,22" fill="none" stroke="#FFFF80" stroke-width="5" stroke-linecap="round" opacity="0.5"/>
  <!-- Left tip -->
  <path d="M15,44 Q9,46 7,41 Q9,35 15,37 Z" fill="#CC9900"/>
  <!-- Right tip -->
  <path d="M82,22 Q88,17 90,23 Q88,30 82,30 Z" fill="#CC9900"/>
  <!-- Stripe lines on banana -->
  <path d="M25,42 Q28,18 52,12" fill="none" stroke="#D4A000" stroke-width="1" opacity="0.4"/>
  <path d="M35,46 Q38,20 60,11" fill="none" stroke="#D4A000" stroke-width="1" opacity="0.4"/>
  <!-- Outline -->
  <path d="M15,44 Q19,12 47,8 Q74,5 82,22 Q86,33 80,39 Q72,46 46,48 Q21,50 15,44 Z" fill="none" stroke="#C89800" stroke-width="1.5"/>
</svg>
